<?xml version="1.0" encoding="utf-8"?>
<!-- Generator: Adobe Illustrator 25.2.1, SVG Export Plug-In . SVG Version: 6.00 Build 0)  -->
<svg version="1.1" id="Layer_1" xmlns="http://www.w3.org/2000/svg" xmlns:xlink="http://www.w3.org/1999/xlink" x="0px" y="0px" width="24" height="24"
	 viewBox="0 0 24 24" style="enable-background:new 0 0 24 24;" xml:space="preserve">
<style type="text/css">
	.st0{fill:#242524;}
</style>
<path class="st0" d="M8.7,5.3c-0.1,0-0.2-0.1-0.2-0.2s0.1-0.2,0.2-0.2h3.9c0.1,0,0.2,0.1,0.2,0.2s-0.1,0.2-0.2,0.2H8.7z M7.1,6.8
	c0,0-0.1,0-0.1-0.1L6.9,6.6c0,0,0-0.1,0.1-0.1c0,0,0.1-0.1,0.2-0.1H14c0.1,0,0.1,0,0.2,0.1l0.1,0.1c0,0,0,0.1-0.1,0.1
	c0,0-0.1,0.1-0.2,0.1C14,6.8,7.1,6.8,7.1,6.8z M7.1,8.3C7,8.3,6.9,8.2,6.9,8.1C6.9,8,7,7.9,7.1,7.9H14c0.1,0,0.2,0.1,0.2,0.2
	S14.1,8.3,14,8.3H7.1z M7.1,9.8L7.1,9.8L6.9,9.7c0-0.1,0-0.1,0.1-0.1c0,0,0.1-0.1,0.2-0.1H14c0.1,0,0.1,0,0.2,0.1l0.1,0.1
	c0,0.1,0,0.1-0.1,0.1c0,0-0.1,0.1-0.2,0.1H7.1V9.8z M7.1,11.4c-0.1,0-0.2-0.1-0.2-0.2S7,11,7.1,11H14c0.1,0,0.2,0.1,0.2,0.2
	c0,0.1-0.1,0.2-0.2,0.2H7.1z M7.1,12.9L7.1,12.9c-0.1,0-0.2-0.1-0.2-0.2c0-0.1,0.1-0.2,0.2-0.2h3.2c0.1,0,0.2,0.1,0.2,0.2
	c0,0.1-0.1,0.2-0.2,0.2H7.1z M12.6,17.4v-0.1l0,0c0-0.1,0-0.2,0-0.3c0-0.1-0.1-0.2-0.1-0.3l-0.3-0.4C12.1,16.1,12,16,12,15.8
	c0-0.1,0-0.3,0-0.4c0-0.1,0.1-0.3,0.2-0.4c0.1-0.1,0.2-0.2,0.3-0.3l0.4-0.3l0,0c0.1-0.1,0.2-0.1,0.2-0.2c0.1-0.1,0.1-0.2,0.1-0.3
	v-0.5c0-0.3,0.2-0.6,0.4-0.8c0.1-0.1,0.2-0.2,0.4-0.2c0.1,0,0.3-0.1,0.4,0l0.5,0.1c0.2,0,0.4,0,0.6-0.2l0.4-0.4
	c0.1-0.1,0.2-0.2,0.4-0.2h0.1V3.9c-0.7-0.1-1.2-0.6-1.3-1.3h-9C6,3.3,5.5,3.8,4.8,3.9V16c0.7,0.1,1.2,0.6,1.3,1.3L12.6,17.4z
	 M19.4,19.3L19.4,19.3c-0.1,0.1-0.2,0.2-0.2,0.3L19,20.1l0,0c-0.1,0.3-0.4,0.5-0.6,0.6c-0.3,0.1-0.6,0.1-0.9,0l0,0v2.6h2L19.4,19.3z
	 M18.1,12.3v-11c0-0.3-0.3-0.6-0.6-0.6h-14C3.3,0.8,3,1,3,1.4v17.2c0,0.3,0.3,0.6,0.6,0.6h9.8h-0.1c-0.1,0-0.3-0.1-0.4-0.2
	c-0.4-0.3-0.5-0.7-0.4-1.1H5.9c-0.1,0-0.1,0-0.1-0.1l-0.1-0.1c0-0.6-0.5-1.1-1.1-1.1c-0.1,0-0.1,0-0.1-0.1l-0.1-0.1V3.7
	c0-0.1,0-0.1,0.1-0.1l0.1-0.1c0.6,0,1.1-0.5,1.1-1.1c0-0.1,0-0.1,0.1-0.1l0.1-0.1h9.3c0.1,0,0.1,0,0.1,0.1l0.1,0.1
	c0,0.6,0.5,1.1,1.1,1.1c0.1,0,0.1,0,0.1,0.1l0.1,0.1v7.7c0.3,0,0.5,0.1,0.7,0.3l0.3,0.4C17.9,12.2,18,12.3,18.1,12.3L18.1,12.3
	L18.1,12.3z M16.1,20.1L16.1,20.1l0.1-0.1c0.3-0.1,0.7-0.1,1,0h0.1l0,0l0,0l0.3,0.2l0,0c0.2,0.1,0.4,0.1,0.5,0
	c0.2-0.1,0.3-0.2,0.4-0.4l0.2-0.5c0.1-0.2,0.2-0.3,0.3-0.4c0.1-0.1,0.3-0.2,0.4-0.2l0,0l0.5-0.1c0.1,0,0.2-0.1,0.3-0.1
	c0.1-0.1,0.1-0.1,0.2-0.2c0-0.1,0.1-0.2,0.1-0.3c0-0.1,0-0.2,0-0.3l-0.1-0.5c-0.1-0.3,0-0.7,0.2-1l0.3-0.4c0.1-0.1,0.1-0.2,0.1-0.3
	s0-0.2,0-0.3s0-0.2-0.1-0.3s-0.1-0.1-0.2-0.2l-0.4-0.3c-0.3-0.2-0.5-0.5-0.5-0.8v-0.5c0-0.2-0.1-0.4-0.2-0.5s-0.2-0.1-0.2-0.1
	c-0.1,0-0.2,0-0.3,0l-0.5,0.1c-0.3,0-0.7-0.1-0.9-0.3l-0.3-0.4c-0.1-0.1-0.3-0.2-0.5-0.2s-0.4,0.1-0.5,0.2L16,12.3
	c-0.1,0.1-0.3,0.2-0.4,0.3c-0.2,0.1-0.3,0.1-0.5,0.1l-0.5-0.1l0,0c-0.1,0-0.2,0-0.3,0s-0.2,0.1-0.2,0.1c-0.1,0.1-0.2,0.3-0.3,0.5
	v0.5c0,0.3-0.2,0.6-0.5,0.8L12.7,15c-0.1,0.1-0.1,0.1-0.2,0.2c-0.1,0.1-0.1,0.2-0.1,0.3s0,0.2,0,0.3s0.1,0.2,0.1,0.3l0.3,0.4
	c0.2,0.3,0.3,0.6,0.2,1L12.9,18c0,0.1,0,0.2,0,0.3c0,0.1,0,0.2,0.1,0.3c0,0.1,0.1,0.2,0.2,0.2c0.1,0.1,0.2,0.1,0.3,0.1L14,19l0,0
	l0,0l0,0c0.3,0.1,0.6,0.3,0.7,0.6l0.2,0.5l0,0c0,0.1,0.1,0.2,0.2,0.2c0.1,0.1,0.3,0.2,0.5,0.2c0.1,0,0.2,0,0.3-0.1L16.1,20.1z
	 M18.5,14.3c-0.9-0.9-2.2-1-3.2-0.3s-1.4,2-0.9,3.1s1.7,1.8,2.9,1.5c1.2-0.2,2.1-1.3,2.1-2.5C19.2,15.4,19,14.8,18.5,14.3L18.5,14.3
	z M16.7,13.1L16.7,13.1c1.4,0,2.6,1,2.9,2.4s-0.5,2.8-1.8,3.3s-2.8,0.1-3.6-1.1S13.6,15,14.6,14C15.2,13.4,15.9,13.1,16.7,13.1
	L16.7,13.1z M17,15.7L16.7,15l-0.3,0.6c0,0.1-0.1,0.1-0.2,0.1l-0.7,0.1l0.5,0.4l0,0c0.1,0,0.1,0.1,0.1,0.2L16,17.2l0.6-0.3
	c0.1,0,0.1,0,0.2,0l0.7,0.3l-0.1-0.6l0,0c0-0.1,0-0.1,0.1-0.2l0.5-0.5l-0.6-0.1l0,0l0,0C17.1,15.8,17.1,15.7,17,15.7L17,15.7z
	 M16.9,14.5l0.5,0.9l0.9,0.1l0,0c0.1,0,0.1,0,0.1,0.1c0,0,0,0.1,0,0.2c0,0,0,0.1-0.1,0.1l-0.7,0.7l0.2,0.9l0,0l0,0
	c0,0.1,0,0.2-0.1,0.2s-0.1,0.1-0.2,0h-0.1l0,0l-0.8-0.4l-0.7,0.4l0,0h-0.1l0,0c-0.1,0-0.2,0-0.2,0c-0.1,0-0.1-0.1-0.1-0.2l0,0l0,0
	l0.1-1L15,15.9l-0.1-0.1c0-0.1,0-0.1,0.1-0.1l0.1-0.1l0,0l1-0.2l0.4-0.9l0.1-0.1C16.7,14.4,16.7,14.4,16.9,14.5
	C16.8,14.4,16.9,14.5,16.9,14.5L16.9,14.5z M14.2,19.5H14v2.6h2v-1.5l0,0l0,0c-0.4,0.2-0.9,0.1-1.2-0.2c-0.1-0.1-0.2-0.2-0.3-0.4
	L14.2,19.5L14.2,19.5C14.2,19.6,14.2,19.6,14.2,19.5L14.2,19.5z"/>
</svg>
