<?xml version="1.0" encoding="utf-8"?>
<!-- Generator: Adobe Illustrator 25.2.1, SVG Export Plug-In . SVG Version: 6.00 Build 0)  -->
<svg version="1.1" id="Layer_1" xmlns="http://www.w3.org/2000/svg" xmlns:xlink="http://www.w3.org/1999/xlink" x="0px" y="0px" width="24" height="24"
	 viewBox="0 0 24 24" style="enable-background:new 0 0 24 24;" xml:space="preserve">
<style type="text/css">
	.st0{fill-rule:evenodd;clip-rule:evenodd;fill:#272425;}
</style>
<path class="st0" d="M10.8,21.5h2.4c0.1,0,0.1,0,0.1-0.1c0,0,0.1-0.1,0.1-0.1v-0.4c0-0.1,0-0.1-0.1-0.1c0,0-0.1-0.1-0.1-0.1h-2.4
	c-0.1,0-0.2,0.1-0.2,0.2v0.4c0,0.1,0,0.1,0.1,0.1C10.7,21.5,10.7,21.5,10.8,21.5z M17.6,7.7c-0.5,0-1,0.3-1.2,0.8
	c-0.2,0.5-0.1,1,0.3,1.4c0.4,0.4,0.9,0.5,1.4,0.3c0.5-0.2,0.8-0.7,0.8-1.2C18.9,8.3,18.3,7.7,17.6,7.7z M20,17.4
	c0,0.1,0,0.1-0.1,0.1c0,0-0.1,0.1-0.1,0.1H17c-0.3,0-0.6,0.3-0.6,0.6c0,0.3,0.3,0.6,0.6,0.6h0.1l-0.3,2.6c0,0,0,0.1,0,0.1
	c0,0,0.1,0,0.1,0h0.8c0.1,0,0.1,0,0.1-0.1l0.3-2.7h1.6l0.6,2.6v0c0,0.1,0.1,0.1,0.2,0.1h0.7c0,0,0.1,0,0.1,0c0,0,0-0.1,0-0.1
	l-0.7-2.9c0.3-0.2,0.5-0.6,0.5-1l0.4-5.1c0-0.2-0.1-0.3-0.2-0.4c-0.1-0.1-0.3-0.2-0.4-0.2c-0.3,0-0.6,0.3-0.6,0.6L20,17.4z M15,15.5
	h1.7c0.1,0,0.2-0.1,0.2-0.2v-1.1l0.7-1.2c0-0.1,0-0.2-0.1-0.2c-0.1,0-0.2,0-0.3,0l-0.5,0.9c-0.1,0.2-0.4,0.4-0.6,0.4h-1.9
	c-0.4,0-0.7-0.4-0.7-0.7s0.3-0.7,0.7-0.7h1.5l0.8-1.3h0c0.3-0.5,0.7-0.7,1.3-0.7h0.2c0.8,0,1.4,0.6,1.4,1.4v3.7c0,0.4-0.2,0.8-0.4,1
	c-0.3,0.3-0.6,0.4-1,0.4h-2.1v3.1c0,0.5-0.4,0.8-0.8,0.8s-0.8-0.4-0.8-0.8v-3.9C14.2,15.9,14.5,15.5,15,15.5L15,15.5z M15.9,3.5
	c0.3,0,0.6,0.3,0.6,0.6v2.6c0,0.3-0.3,0.6-0.6,0.6h-0.2v0.9c0,0.1-0.1,0.2-0.1,0.2c-0.1,0-0.2,0-0.2,0l-0.9-1h-2.7
	c-0.3,0-0.6-0.3-0.6-0.6v0h0.2c0.6,0,1-0.5,1-1V3.5L15.9,3.5z M7.3,2.5c-0.3,0-0.6,0.3-0.6,0.6v2.6c0,0.3,0.3,0.6,0.6,0.6h0.2v0.9
	c0,0.1,0.1,0.1,0.1,0.2c0.1,0,0.2,0,0.2,0l0.9-1h2.7C11.7,6.3,12,6,12,5.7V3.1c0-0.3-0.3-0.6-0.6-0.6L7.3,2.5z M10.5,4
	c0.1,0,0.3,0.1,0.3,0.2c0.1,0.1,0,0.3-0.1,0.4c-0.1,0.1-0.2,0.1-0.4,0.1c-0.1-0.1-0.2-0.2-0.2-0.3C10.2,4.2,10.3,4,10.5,4L10.5,4z
	 M8.1,4c0.1,0,0.3,0.1,0.3,0.2c0.1,0.1,0,0.3-0.1,0.4C8.3,4.7,8.1,4.8,8,4.7C7.9,4.7,7.8,4.5,7.8,4.4C7.8,4.2,8,4,8.1,4L8.1,4z
	 M9.3,4c0.1,0,0.3,0.1,0.3,0.2c0.1,0.1,0,0.3-0.1,0.4C9.5,4.7,9.3,4.8,9.2,4.7C9.1,4.7,9,4.5,9,4.4C9,4.2,9.1,4,9.3,4L9.3,4z
	 M13.9,6.3c-0.1,0-0.2,0.1-0.2,0.1c0,0.1,0,0.2,0,0.2c0.1,0.1,0.2,0.1,0.2,0c0.1,0,0.1-0.1,0.1-0.2c0-0.1,0-0.1-0.1-0.2
	C14,6.3,13.9,6.3,13.9,6.3L13.9,6.3z M13.5,5c0-0.2,0.2-0.3,0.3-0.3c0.1,0,0.2,0,0.2,0.1c0.1,0.1,0.1,0.2,0.1,0.2
	c0,0.1,0,0.1-0.1,0.2c0,0.1-0.1,0.1-0.2,0.1c-0.2,0.1-0.3,0.3-0.3,0.5V6c0,0.1,0,0.1,0,0.2c0,0.1,0.1,0.1,0.2,0.1
	c0.1,0,0.1,0,0.2-0.1c0-0.1,0.1-0.1,0-0.2V5.8c0,0,0-0.1,0-0.1c0,0,0,0,0.1-0.1c0.1-0.1,0.2-0.2,0.3-0.3c0.1-0.2,0.2-0.4,0.1-0.7
	c-0.1-0.2-0.3-0.4-0.5-0.5c-0.2-0.1-0.5,0-0.7,0.1c-0.2,0.1-0.3,0.4-0.3,0.6c0,0.1,0.1,0.1,0.2,0.1C13.4,5.1,13.5,5.1,13.5,5L13.5,5
	z M6.4,7.7c0.5,0,1,0.3,1.2,0.8c0.2,0.5,0.1,1-0.3,1.4c-0.4,0.4-0.9,0.5-1.4,0.3C5.4,9.9,5.1,9.5,5.1,9C5.1,8.3,5.7,7.7,6.4,7.7z
	 M4,17.4c0,0.1,0,0.1,0.1,0.1s0.1,0.1,0.1,0.1H7c0.3,0,0.6,0.3,0.6,0.6c0,0.3-0.3,0.6-0.6,0.6H6.9l0.3,2.6c0,0,0,0.1,0,0.1
	c0,0-0.1,0-0.1,0H6.4c-0.1,0-0.1,0-0.1-0.1l-0.3-2.7H4.3l-0.6,2.6c0,0.1-0.1,0.1-0.2,0.1H2.8c0,0-0.1,0-0.1,0c0,0,0-0.1,0-0.1
	l0.7-2.9c-0.3-0.2-0.5-0.6-0.5-1l-0.4-5.1c0-0.2,0.1-0.3,0.2-0.4c0.1-0.1,0.3-0.2,0.4-0.2c0.3,0,0.6,0.3,0.6,0.6L4,17.4z M9,15.5
	H7.3c-0.1,0-0.2-0.1-0.2-0.2v-1.1L6.4,13c0,0-0.1-0.1-0.1-0.2c0-0.1,0-0.1,0.1-0.2c0.1,0,0.1,0,0.2,0c0.1,0,0.1,0.1,0.1,0.1l0.5,0.9
	h0c0.1,0.2,0.4,0.4,0.6,0.4h1.9h0c0.4,0,0.7-0.4,0.7-0.7c0-0.4-0.3-0.7-0.7-0.7H8.3l-0.8-1.3h0c-0.3-0.5-0.7-0.7-1.3-0.7H6.1
	c-0.8,0-1.4,0.6-1.4,1.4v3.7c0,0.8,0.6,1.4,1.4,1.4h2.1v3.1c0,0.5,0.4,0.8,0.8,0.8c0.5,0,0.8-0.4,0.8-0.8v-3.9
	c0-0.2-0.1-0.4-0.2-0.6C9.4,15.6,9.2,15.5,9,15.5L9,15.5z M12.5,20.3v-4.7h-1.1v4.7L12.5,20.3z M8.8,14.4c-0.2,0-0.3,0.1-0.3,0.3
	v0.2c0,0.2,0.1,0.3,0.3,0.3h6.5c0.2,0,0.3-0.1,0.3-0.3v-0.2c0-0.2-0.1-0.3-0.3-0.3L8.8,14.4z"/>
</svg>
