<?xml version="1.0" encoding="utf-8"?>
<!-- Generator: Adobe Illustrator 25.2.1, SVG Export Plug-In . SVG Version: 6.00 Build 0)  -->
<svg version="1.1" xmlns="http://www.w3.org/2000/svg" xmlns:xlink="http://www.w3.org/1999/xlink" x="0px" y="0px" width="24" height="24"
	 viewBox="0 0 24 24" style="enable-background:new 0 0 24 24;" xml:space="preserve">
<style type="text/css">
	.st0{fill:#242524;}
</style>
<g id="Layer_2">
</g>
<g id="Layer_1">
	<g>
		<path class="st0" d="M5.2,13.6l-1.1,4.8c0,0.1,0,0.2,0,0.2h2.2l1-4.4L5.2,13.6C5.2,13.6,5.2,13.6,5.2,13.6z"/>
		<path class="st0" d="M13.1,8.6C13,8.1,12.5,7.8,12,7.9l-1.5,0.4L9.4,6.9c0,0-0.1-0.1-0.1-0.1C9,6.5,8.6,6.3,8.3,6.2L6.6,5.8
			c-0.5-0.1-1,0-1.5,0.2l-2,1C2.9,7.1,2.7,7.3,2.6,7.5L2,9.6c-0.1,0.5,0.1,1,0.6,1.1c0.1,0,0.2,0,0.3,0c0.4,0,0.8-0.3,0.9-0.6
			l0.5-1.7L5.2,8l-0.3,3.4c0,0.5,0.3,1,0.8,1.1l3,0.9l0,3.1c0,0,0,0.1,0,0.2h2.1c0-0.1,0-0.1,0-0.2l-0.1-3.8c0-0.5-0.3-0.9-0.8-1
			l-1.9-0.6l0.5-2.4l0.9,1.2c0.2,0.3,0.6,0.4,0.9,0.3l2-0.5C12.9,9.5,13.2,9,13.1,8.6z"/>
		<path class="st0" d="M6.4,19.6H3.8c-0.2,0-0.3,0.1-0.3,0.3v2.1c0,0.2,0.1,0.3,0.3,0.3h2.6c0.2,0,0.3-0.1,0.3-0.3v-2.1
			C6.7,19.7,6.5,19.6,6.4,19.6z"/>
		<path class="st0" d="M10.9,17.6H8.4c-0.2,0-0.3,0.1-0.3,0.3v4c0,0.2,0.1,0.3,0.3,0.3h2.6c0.2,0,0.3-0.1,0.3-0.3v-4.1
			C11.2,17.7,11.1,17.6,10.9,17.6z"/>
		<path class="st0" d="M15.5,15.6h-2.6c-0.2,0-0.3,0.1-0.3,0.3v6c0,0.2,0.1,0.3,0.3,0.3h2.6c0.2,0,0.3-0.1,0.3-0.3v-6
			C15.8,15.7,15.7,15.6,15.5,15.6z"/>
		<path class="st0" d="M21.9,12.3l-2.8-3.6c-0.2-0.2-0.6-0.2-0.7,0l-2.8,3.6c-0.2,0.3,0,0.8,0.4,0.8h1.2v8.9c0,0.2,0.1,0.3,0.3,0.3
			h2.6c0.2,0,0.3-0.1,0.3-0.3V13h1.2C21.9,13,22.1,12.6,21.9,12.3z"/>
		<circle class="st0" cx="8.2" cy="3.7" r="1.9"/>
	</g>
</g>
</svg>
