<?xml version="1.0" encoding="utf-8"?>
<!-- Generator: Adobe Illustrator 25.2.1, SVG Export Plug-In . SVG Version: 6.00 Build 0)  -->
<svg version="1.1" id="Layer_1" xmlns="http://www.w3.org/2000/svg" xmlns:xlink="http://www.w3.org/1999/xlink" x="0px" y="0px" width="24" height="24"
	 viewBox="0 0 24 24" style="enable-background:new 0 0 24 24;" xml:space="preserve">
<style type="text/css">
	.st0{fill:#242524;}
</style>
<g>
	<path class="st0" d="M8.1,13.7l-0.5,0.5l-0.4-0.4c-0.1-0.1-0.3-0.1-0.4,0l-4,4c-0.9,0.9-0.9,2.4,0,3.4c0.9,0.9,2.4,0.9,3.4,0l4-4
		c0.1-0.1,0.1-0.3,0-0.4l-0.4-0.4l0.5-0.5C9.4,15.3,8.7,14.6,8.1,13.7z"/>
	<path class="st0" d="M14.7,2.1c-4,0-7.3,3.2-7.3,7.3s3.3,7.3,7.3,7.3S22,13.5,22,9.4S18.7,2.1,14.7,2.1z M14.7,15.2
		c-3.2,0-5.8-2.6-5.8-5.8s2.6-5.8,5.8-5.8s5.8,2.6,5.8,5.8C20.5,12.5,17.9,15.2,14.7,15.2z"/>
	<path class="st0" d="M16.3,11.3c-0.5,0.3-1.1,0.5-1.7,0.5c-0.6,0-1.2-0.2-1.7-0.5c-0.9,0.4-1.4,1-1.8,1.9c1,0.9,2.2,1.3,3.5,1.3
		c1.4,0,2.7-0.6,3.5-1.3C17.8,12.4,17.1,11.7,16.3,11.3z"/>
	<path class="st0" d="M12.7,10.8L12.7,10.8c-0.2-0.4-0.5-0.7-0.9-0.9c-0.3,0.2-0.6,0.3-1,0.3s-0.7-0.1-1-0.3c-0.1,0-0.2,0.1-0.3,0.2
		c0.1,0.9,0.5,1.8,1.2,2.6l0,0C11.1,11.9,11.8,11.2,12.7,10.8z"/>
	<path class="st0" d="M10.8,9.5c0.5,0,0.9-0.4,0.9-0.9s-0.4-0.9-0.9-0.9S9.9,8.1,9.9,8.6C9.9,9.1,10.3,9.5,10.8,9.5z"/>
	<path class="st0" d="M14.7,10.7c0.9,0,1.6-0.7,1.6-1.6s-0.7-1.6-1.6-1.6c-0.9,0-1.6,0.7-1.6,1.6S13.8,10.7,14.7,10.7z"/>
	<path class="st0" d="M18.5,9.5c0.5,0,0.9-0.4,0.9-0.9S19,7.7,18.5,7.7s-0.9,0.4-0.9,0.9C17.5,9.1,17.9,9.5,18.5,9.5z"/>
	<path class="st0" d="M18.5,10.2c-0.4,0-0.7-0.1-1-0.3c-0.4,0.2-0.7,0.5-0.9,0.9l0,0c0.9,0.4,1.6,1.1,2,2c0.6-0.7,1-1.6,1.2-2.6
		c-0.1-0.1-0.2-0.2-0.4-0.2C19.2,10.1,18.8,10.2,18.5,10.2z"/>
</g>
</svg>
