<?xml version="1.0" encoding="utf-8"?>
<!-- Generator: Adobe Illustrator 25.2.1, SVG Export Plug-In . SVG Version: 6.00 Build 0)  -->
<svg version="1.1" id="Layer_1" xmlns="http://www.w3.org/2000/svg" xmlns:xlink="http://www.w3.org/1999/xlink" x="0px" y="0px" width="24" height="24"
	 viewBox="0 0 24 24" style="enable-background:new 0 0 24 24;" xml:space="preserve">
<style type="text/css">
	.st0{fill:#242524;}
</style>
<g>
	<g>
		<path class="st0" d="M20,4.4V9c0,0.2-0.2,0.4-0.4,0.4h-8.9c-0.2,0-0.4-0.2-0.4-0.4V4.4H4.1c-1.2,0-2.2,1-2.2,2.2v8.8h20.3V6.6
			C22.1,5.4,21.2,4.5,20,4.4z M9.5,13.3c0,0.2-0.2,0.4-0.4,0.4H4c-0.2,0-0.4-0.2-0.4-0.4V6.9c0-0.2,0.2-0.4,0.4-0.4h3.5
			c0.1,0,0.2,0,0.3,0.1l1.5,1.5c0.1,0.1,0.1,0.2,0.1,0.3V13.3z M19.6,13.7h-8c-0.2,0-0.4-0.2-0.4-0.4s0.2-0.4,0.4-0.4h8
			c0.2,0,0.4,0.2,0.4,0.4S19.8,13.7,19.6,13.7z M19.6,12h-8c-0.2,0-0.4-0.2-0.4-0.4s0.2-0.4,0.4-0.4h8c0.2,0,0.4,0.2,0.4,0.4
			S19.8,12,19.6,12z"/>
		<path class="st0" d="M4.4,7.4v5.5h4.2V8.6L7.4,7.4H4.4z M5.7,9h0.8c0.2,0,0.4,0.2,0.4,0.4c0,0.2-0.2,0.4-0.4,0.4H5.7
			c-0.2,0-0.4-0.2-0.4-0.4C5.2,9.2,5.4,9,5.7,9z M7.8,11.2c0,0.2-0.2,0.4-0.4,0.4H5.7c-0.2,0-0.4-0.2-0.4-0.4s0.2-0.4,0.4-0.4h1.7
			C7.6,10.7,7.8,10.9,7.8,11.2z"/>
		<path class="st0" d="M1.9,17.4c0,1.2,1,2.2,2.2,2.2h6.2V20c0,0.7-0.6,1.3-1.3,1.3c-0.2,0-0.4,0.2-0.4,0.4s0.2,0.4,0.4,0.4H15
			c0.2,0,0.4-0.2,0.4-0.4s-0.2-0.4-0.4-0.4c-0.7,0-1.3-0.6-1.3-1.3v-0.4h6.2c1.2,0,2.2-1,2.2-2.2v-1.2H1.9V17.4z M11.8,17.5h0.4
			c0.2,0,0.4,0.2,0.4,0.4s-0.2,0.4-0.4,0.4h-0.4c-0.2,0-0.4-0.2-0.4-0.4S11.6,17.5,11.8,17.5z"/>
		<path class="st0" d="M19.2,2.2c0-0.2-0.1-0.3-0.3-0.3h-7.4c-0.2,0-0.3,0.1-0.3,0.3v1.4h8V2.2z"/>
		<path class="st0" d="M11.5,8.6h7.4c0.2,0,0.3-0.1,0.3-0.3V4.4h-8v3.9C11.2,8.5,11.3,8.6,11.5,8.6z M12.4,5.2h3.4
			c0.2,0,0.4,0.2,0.4,0.4c0,0.2-0.2,0.4-0.4,0.4h-3.4c-0.2,0-0.4-0.2-0.4-0.4C12,5.4,12.2,5.2,12.4,5.2z M12.4,6.9h5.5
			c0.2,0,0.4,0.2,0.4,0.4s-0.2,0.4-0.4,0.4h-5.5c-0.2,0-0.4-0.2-0.4-0.4S12.2,6.9,12.4,6.9z"/>
	</g>
</g>
</svg>
