<?xml version="1.0" encoding="utf-8"?>
<!-- Generator: Adobe Illustrator 25.2.1, SVG Export Plug-In . SVG Version: 6.00 Build 0)  -->
<svg version="1.1" id="Layer_1" xmlns="http://www.w3.org/2000/svg" xmlns:xlink="http://www.w3.org/1999/xlink" x="0px" y="0px" width="24" height="24"
	 viewBox="0 0 24 24" style="enable-background:new 0 0 24 24;" xml:space="preserve"> 
<style type="text/css">
	.st0{fill:#242524;}
</style>
<path class="st0" d="M17.5,14.6c0.3,0,0.6,0,0.9-0.1v7.1c0,0.5-0.4,0.9-0.9,0.9h-11c-0.5,0-0.9-0.4-0.9-0.9l0-0.5h9.8
	c0.9,0,1.6-0.7,1.6-1.6v-4.9C17.2,14.6,17.3,14.6,17.5,14.6L17.5,14.6z M18.4,7.4V4.6c0-0.5-0.4-0.9-0.9-0.9H17v3.7
	c0.2,0,0.4,0,0.6,0C17.8,7.3,18.1,7.3,18.4,7.4L18.4,7.4z M6.4,1.9L3.8,4.4h2.6L6.4,1.9L6.4,1.9z M10.3,7.4c0.1-0.1,0.2-0.2,0.2-0.4
	c0-0.1-0.1-0.3-0.2-0.4C10.2,6.6,10,6.5,9.9,6.5c-0.1,0-0.3,0.1-0.4,0.2C9.4,6.8,9.4,6.9,9.4,7c0,0.1,0.1,0.3,0.2,0.4
	c0.1,0.1,0.2,0.2,0.4,0.2C10,7.5,10.2,7.5,10.3,7.4z M8.3,8.5c0.3-0.3,0.6-0.4,1-0.5C9.2,8,9.1,7.9,9.1,7.9C8.9,7.6,8.7,7.4,8.7,7
	c0-0.3,0.1-0.6,0.3-0.8C9.3,6,9.6,5.8,9.9,5.8c0.3,0,0.6,0.1,0.8,0.3C11,6.4,11.1,6.7,11.1,7c0,0.3-0.1,0.6-0.3,0.8
	c-0.1,0.1-0.2,0.1-0.3,0.2c0.4,0,0.8,0.2,1,0.5c0.2,0.2,0.4,0.5,0.4,0.8c0.3-0.4,0.4-0.9,0.4-1.4c0-0.7-0.3-1.3-0.7-1.7
	c-0.4-0.4-1.1-0.7-1.7-0.7c-0.7,0-1.3,0.3-1.7,0.7C7.7,6.7,7.5,7.3,7.5,7.9c0,0.5,0.2,1,0.4,1.4C7.9,9,8.1,8.7,8.3,8.5z M10.4,8.7
	h-1C9.1,8.7,8.9,8.8,8.8,9S8.5,9.4,8.5,9.6V10c0.4,0.3,0.9,0.4,1.4,0.4c0.5,0,1-0.2,1.4-0.4V9.6c0-0.2-0.1-0.5-0.3-0.6
	C10.9,8.8,10.7,8.7,10.4,8.7z M15.4,20.4H4.4c-0.5,0-0.9-0.4-0.9-0.9V5.2c0,0,0,0,0,0h3.2c0.2,0,0.3-0.2,0.3-0.3l0-3.2c0,0,0,0,0,0
	h8.2c0.5,0,0.9,0.4,0.9,0.9v5.1c-1.4,0.5-2.4,1.8-2.4,3.4c0,1.6,1,2.9,2.4,3.4v5.1C16.3,19.9,15.9,20.4,15.4,20.4L15.4,20.4z
	 M6.8,7.9c0,0.9,0.4,1.6,0.9,2.2c0.1,0.1,0.2,0.2,0.3,0.2l0,0c0.5,0.4,1.2,0.7,1.9,0.7c0.9,0,1.6-0.4,2.2-0.9
	C12.7,9.6,13,8.8,13,7.9c0-0.9-0.3-1.6-0.9-2.2c-0.6-0.6-1.3-0.9-2.2-0.9C9,4.8,8.3,5.2,7.7,5.7C7.1,6.3,6.8,7.1,6.8,7.9L6.8,7.9z
	 M10.2,16.7c0-0.2-0.2-0.3-0.3-0.3H6.2c-0.2,0-0.3,0.2-0.3,0.3c0,0.2,0.2,0.3,0.3,0.3h3.7C10.1,17.1,10.2,16.9,10.2,16.7z M14,14.5
	c0-0.2-0.2-0.3-0.3-0.3H6.2c-0.2,0-0.3,0.2-0.3,0.3c0,0.2,0.2,0.3,0.3,0.3h7.5C13.8,14.9,14,14.7,14,14.5L14,14.5z M14,12.3
	c0-0.2-0.2-0.3-0.3-0.3H6.2c-0.2,0-0.3,0.2-0.3,0.3c0,0.2,0.2,0.3,0.3,0.3h7.5C13.8,12.7,14,12.5,14,12.3L14,12.3z M20.5,10.9
	c0,1.6-1.3,3-3,3c-1.6,0-3-1.3-3-3c0-1.6,1.3-3,3-3C19.2,8,20.5,9.3,20.5,10.9z M19.1,9.9c-0.1-0.1-0.3-0.1-0.5,0l-1.4,1.4l-0.9-0.9
	c-0.1-0.1-0.3-0.1-0.5,0c-0.1,0.1-0.1,0.3,0,0.5L17,12c0.1,0.1,0.3,0.1,0.5,0l1.6-1.6C19.3,10.2,19.3,10,19.1,9.9z"/>
</svg>
